<?xml version="1.0" encoding="UTF-8" standalone="no"?>
<svg
   viewBox="0 0 24 24"
   version="1.1"
   id="svg1"
   sodipodi:docname="technical.svg"
   inkscape:version="1.4.2 (f4327f4, 2025-05-13)"
   xmlns:inkscape="http://www.inkscape.org/namespaces/inkscape"
   xmlns:sodipodi="http://sodipodi.sourceforge.net/DTD/sodipodi-0.dtd"
   xmlns="http://www.w3.org/2000/svg"
   xmlns:svg="http://www.w3.org/2000/svg">
  <defs
     id="defs1" />
  <sodipodi:namedview
     id="namedview1"
     pagecolor="#ffffff"
     bordercolor="#000000"
     borderopacity="0.25"
     inkscape:showpageshadow="2"
     inkscape:pageopacity="0.0"
     inkscape:pagecheckerboard="0"
     inkscape:deskcolor="#d1d1d1"
     showguides="true"
     inkscape:zoom="33.625"
     inkscape:cx="11.98513"
     inkscape:cy="12"
     inkscape:window-width="1920"
     inkscape:window-height="1009"
     inkscape:window-x="-8"
     inkscape:window-y="-8"
     inkscape:window-maximized="1"
     inkscape:current-layer="g1">
    <sodipodi:guide
       position="10.498141,13.085502"
       orientation="1,0"
       id="guide1"
       inkscape:locked="false" />
  </sodipodi:namedview>
  <g
     fill="#FFFFFF"
     stroke="#151515"
     stroke-width="2"
     stroke-linejoin="round"
     id="g1">
    <path
       d="M12 3l1 2a7 7 0 0 1 2 .9l2-.5 1.7 3-1.7 1a7 7 0 0 1 0 2l1.7 1-1.7 3-2-.5a7 7 0 0 1-2 .9l-1 2h-3l-1-2a7 7 0 0 1-2-.9l-2 .5L2.3 12 4 11a7 7 0 0 1 0-2l-1.7-1L4 4.9l2 .5a7 7 0 0 1 2-.9l1-2h3z"
       id="path1" />
    <circle
       cx="10.386614"
       cy="10.267656"
       r="3"
       fill="#ffffff"
       stroke="#151515"
       id="circle1" />
  </g>
</svg>
